<?xml version="1.0" encoding="utf-8"?>
<!-- Generator: Adobe Illustrator 16.0.0, SVG Export Plug-In . SVG Version: 6.00 Build 0)  -->
<!DOCTYPE svg PUBLIC "-//W3C//DTD SVG 1.1//EN" "http://www.w3.org/Graphics/SVG/1.1/DTD/svg11.dtd">
<svg version="1.1" id="Layer_1" xmlns:odm="http://product.corel.com/CGS/11/cddns/"
	 xmlns="http://www.w3.org/2000/svg" xmlns:xlink="http://www.w3.org/1999/xlink" x="0px" y="0px" width="97px" height="97px"
	 viewBox="0 0 97 97" enable-background="new 0 0 97 97" xml:space="preserve">
<g id="Layer_1_1_">
	<g>
		<path fill="none" d="M302.918,100.959H1.031V-6.929h301.887V100.959z"/>
		<path fill="#0C1C8C" d="M54.479,11.877c2.97,2.969,5.939,6.929,7.918,9.898l6.929,6.929c6.928,5.939,12.867,10.888,19.796,15.837
			l0,0c0.99,0.99,1.979,1.979,1.979,2.969c0,1.98-2.969,2.969-3.959,3.958C73.286,61.367,61.408,73.245,51.51,87.102l-0.99,0.99
			c0,0-0.99,0-1.979,0c-0.99-0.99-0.99-1.979-1.98-1.979c-1.979-3.959-4.949-6.929-6.928-9.897c-1.98-0.99-2.97-2.97-3.959-3.96
			C27.755,63.347,18.847,55.429,9.939,49.49c-0.99-0.99-1.98-1.98-0.99-2.97c0-0.99,0.99-1.979,1.979-1.979
			c11.877-7.918,22.765-18.806,31.673-29.694l4.949-7.918c0.99,0,1.98-0.99,2.97,0c0,0,0.99,0,0.99,0.99L54.479,11.877z
			 M46.561,17.816c-1.979,1.979-4.949,3.959-6.928,5.938c-0.99,0-0.99,0.99-0.99,0.99c-5.939,4.949-11.878,10.888-15.837,16.826
			c-1.979,1.979-2.969,2.97-3.959,4.949c0,1.979,0,2.97,0.99,2.97c3.959,5.938,8.908,11.877,14.847,16.826
			c3.959,3.959,8.908,8.908,13.857,10.888c1.979,0.989,3.959,0,4.949-0.989c6.929-4.949,13.857-10.889,19.796-17.816
			c1.979-2.97,4.949-5.939,6.929-9.898c0-1.979,0-2.969-0.99-3.959c-4.949-6.929-9.898-12.868-16.827-18.806l0,0
			c-1.979-1.98-4.949-3.959-6.929-5.939C53.49,17.816,49.531,15.837,46.561,17.816z"/>
		<path fill="#0C1C8C" d="M55.469,21.775c7.918,6.929,15.837,14.847,21.776,23.755c0.99,0.99,1.979,2.969,0.99,3.959
			c-1.98,1.979-3.959,4.949-5.939,6.928l0,0c-4.949,5.939-9.898,10.889-15.837,15.837c-2.969,0.99-4.949,4.949-8.908,2.97
			c-7.918-5.939-15.836-13.857-22.765-21.775c-0.99-0.99-2.969-2.97-2.969-4.949c-0.99-1.979,0.99-3.959,1.979-5.939
			c6.929-8.908,15.837-16.826,23.755-22.765C50.521,17.816,53.49,20.786,55.469,21.775z M49.531,24.745l-0.99,2.969l-2.97,10.888
			c0,0,1.979,0,2.97,0l0,0l-0.99,12.867l0,0c0.99,0,2.97,0,3.959,0v-0.989V38.602l0,0h2.969C52.5,33.653,51.51,29.694,49.531,24.745
			L49.531,24.745z M36.663,42.561c-1.979,0.99-4.949,1.98-4.949,4.949c0.99,1.98,1.979,2.969,3.959,3.958
			c6.929,2.971,16.827,2.971,25.735,0.99c0.99-0.99,3.959-1.979,4.949-4.949c0-1.979-2.969-2.969-3.959-3.959l0,0
			c0,0,0.99,0,1.979,0l0,0c-2.969-0.99-5.938-1.979-7.918-1.979c0,0.99,0.99,1.979,0.99,2.97c0.99,0,1.979,0,1.979,0
			c1.979,0,3.959,0.99,3.959,2.969c0,0.99-1.979,1.98-2.969,2.969c-5.939,1.979-11.877,1.979-18.806,0.989
			c-0.99-0.989-3.959-1.979-3.959-3.958c0.99-2.969,3.959-2.969,6.929-3.959c-0.99-0.99-2.969-1.979-3.959-2.969
			C39.633,41.571,37.653,41.571,36.663,42.561z M47.551,54.439c0,3.959,0,8.907-0.99,12.867c1.98,0,3.959,0,5.939,0l-0.99-11.878
			v-0.989C50.521,54.439,49.531,54.439,47.551,54.439z"/>
		<path fill="#0C1C8C" d="M66.357,81.163v-0.989h0.99h0.99c0,0.989,0,0.989-0.99,0.989H66.357z M66.357,82.153h0.99l0.99,1.979h0.99
			l-0.99-1.979c0,0,0.99-0.99,0.99-1.979c0-0.99-0.99-0.99-1.979-0.99h-1.98v4.949h0.99V82.153z M71.306,81.163
			c0-1.979-1.979-3.959-3.959-3.959c-1.98,0-3.959,1.979-3.959,3.959c0,2.97,1.979,4.949,3.959,4.949
			C69.327,86.112,71.306,84.133,71.306,81.163z M70.316,81.163c0,1.979-0.99,3.96-2.969,3.96l0,0c-1.98,0-2.97-1.98-2.97-3.96
			s0.99-2.97,2.97-2.97C69.327,78.193,70.316,79.184,70.316,81.163z"/>
	</g>
</g>
</svg>
